# xmcd
#
# Track frame offsets: 
#        150
#        28721
#        51549
#        72476
#        103111
#        122439
#        141974
#        176844
#        196916
#
# Disc length: 2857 seconds
#
# Revision: 8
# Processed by: cddbd v1.5.2PL0 Copyright (c) Steve Scherf et al.
# Submitted via: ExactAudioCopy v1.3
#
DISCID=880b2709
DTITLE=Otis Rush - Lost In The Blues
DYEAR=1991
DGENRE=Chicago Blues
TTITLE0=Hold That Train
TTITLE1=You've Been An Angel
TTITLE2=Little Red Rooster
TTITLE3=Trouble, Trouble
TTITLE4=Please Love Me
TTITLE5=You Don't Have To Go
TTITLE6=Got To Be Some Changes Made
TTITLE7=You Got Me Running
TTITLE8=I Miss You So
EXTD=1991  Alligator Record ALCD4797\nRecorded: 15,16-Oct-1977, Stockh
EXTD=olm Sweden\nOtis Rush: Guitar and Vocals\nBob Levis: Rhythm Guita
EXTD=r\nLucky Peterson: Piano and Organ\nBob Stroger: Bass\nJesse Lewi
EXTD=s Green: Drums\nAllen Batts: Piano and Organ (Little Red Rooster)
EXTD=\n\nEntry amend: Mike Lempriere  mikel@speakeasy.org  31-Dec-96\n
EXTD=YEAR: 1991
EXTT0=
EXTT1=
EXTT2=
EXTT3=
EXTT4=
EXTT5=
EXTT6=
EXTT7=
EXTT8=
PLAYORDER=
